<?xml version="1.0" encoding="utf-8"?>
<svg version="1.1" baseProfile="tiny" id="Layer_2" xmlns="http://www.w3.org/2000/svg" xmlns:xlink="http://www.w3.org/1999/xlink"
	 x="0px" y="0px" viewBox="0 0 16 16" xml:space="preserve">
<path d="M13.5,4C12.7,4,12,4.7,12,5.5v1C12,7.3,12.7,8,13.5,8S15,7.3,15,6.5v-1C15,4.7,14.3,4,13.5,4z M14,6.5C14,6.8,13.8,7,13.5,7
	S13,6.8,13,6.5v-1C13,5.2,13.2,5,13.5,5S14,5.2,14,5.5V6.5z"/>
<path d="M9,2C7.9,2,7,2.9,7,4v2c0,1.1,0.9,2,2,2s2-0.9,2-2V4C11,2.9,10.1,2,9,2z M10,6c0,0.6-0.4,1-1,1S8,6.6,8,6V4c0-0.6,0.4-1,1-1
	s1,0.4,1,1V6z"/>
<path d="M14.7,13.3c0.2-0.2,0.3-0.5,0.3-0.8c0-0.8-0.7-1.5-1.5-1.5S12,11.7,12,12.5c0,0.3,0.1,0.6,0.3,0.8c-0.3,0.2-0.6,0.4-0.8,0.7
	c-0.2-0.3-0.6-0.6-0.9-0.8c0.3-0.3,0.4-0.8,0.4-1.2c0-1.1-0.9-2-2-2s-2,0.9-2,2c0,0.5,0.2,0.9,0.4,1.2c-0.4,0.2-0.7,0.4-0.9,0.8
	c-0.3-0.4-0.7-0.7-1.1-0.9c0.4-0.4,0.6-1,0.6-1.7C6,10.1,4.9,9,3.5,9S1,10.1,1,11.5c0,0.6,0.2,1.2,0.6,1.7c-1,0.4-1.6,1.3-1.6,2.3
	C0,15.8,0.2,16,0.5,16S1,15.8,1,15.5C1,14.7,1.7,14,2.5,14h2C5.3,14,6,14.7,6,15.5C6,15.8,6.2,16,6.5,16S7,15.8,7,15.5
	C7,14.7,7.7,14,8.5,14h1c0.8,0,1.5,0.7,1.5,1.5c0,0.3,0.2,0.5,0.5,0.5s0.5-0.2,0.5-0.5c0-0.8,0.7-1.5,1.5-1.5s1.5,0.7,1.5,1.5
	c0,0.3,0.2,0.5,0.5,0.5s0.5-0.2,0.5-0.5C16,14.6,15.5,13.8,14.7,13.3z M3.5,13C2.7,13,2,12.3,2,11.5S2.7,10,3.5,10S5,10.7,5,11.5
	S4.3,13,3.5,13z M9,13c-0.6,0-1-0.4-1-1s0.4-1,1-1c0.6,0,1,0.4,1,1S9.6,13,9,13z M13.5,13c-0.3,0-0.5-0.2-0.5-0.5s0.2-0.5,0.5-0.5
	s0.5,0.2,0.5,0.5S13.8,13,13.5,13z"/>
<path d="M3.5,0C2.1,0,1,1.1,1,2.5v3C1,6.9,2.1,8,3.5,8S6,6.9,6,5.5v-3C6,1.1,4.9,0,3.5,0z M5,5.5C5,6.3,4.3,7,3.5,7S2,6.3,2,5.5v-3
	C2,1.7,2.7,1,3.5,1S5,1.7,5,2.5V5.5z"/>
</svg>
